Patient4_TMGait_0pt7_02_left_17_EMG.mot
version=1
nRows=23
nColumns=33
inDegrees=no
endheader
time	1LAddLong	2LGlutMax	3LGlutMed	4LIliopsoas	5LSemiMemb	6LBicFemLong	7LRecFem	8LVastMed	9LVastLat	10LGasMed	11LTibAnt	12lTibPost	13LPeroneusLong	14LSol	15LExtDigLong	16LFlexDigLong	17RAddLong	18RGlutMax	19RGlutMed	20RIliopsoas	21RSemiMemb	22RBicFemLong	23RRecFem	24RVastMed	25RVastLat	26RGasMed	27RTibAnt	28RTibPost	29RPeroneusLong	30RSol	31RExtDigLong	32RFlexDigLong
19.19	0.021057	0.22232	-0.059357	0.028534	-0.001831	-0.028534	-0.11475	0.009003	0.27756	0.00473	-0.083618	0.006714	0.06073	-0.23163	0.13016	-1.1263	-0.008545	-0.44281	0.046082	-0.003967	-0.055695	-0.016479	-0.10101	0.038757	-0.027313	-0.02655	0.26794	-0.003052	-0.85754	0.039673	-0.002136	-0.009155
19.191	0.016937	0.19257	-0.052338	0.010071	0.003815	-0.028992	-0.11459	0.015717	0.28137	0.000458	-0.098877	0.001984	0.055542	-0.28214	0.11246	0.48126	0.001221	-0.5397	-0.35355	-0.012512	-0.057373	-0.040894	-0.03891	0.20538	-0.10071	-0.013123	0.078888	-0.002899	-0.40726	0.012817	0.000153	-0.009308
19.192	0.006866	0.23377	-0.055847	0.007324	-0.006561	-0.034637	-0.10162	0.015411	0.2681	0.000153	-0.066223	0.010529	0.085907	-0.22553	-0.12436	0.67474	-0.006104	-0.62714	-0.40375	-0.019531	-0.010986	-0.054321	-0.38345	0.12161	-0.033569	-0.016632	-0.075378	-0.000153	-0.28397	-0.024261	-0.007782	-0.013123
19.193	0.001373	0.29327	-0.057831	0.037994	-0.007629	-0.039673	-0.10605	0.01236	0.2739	-0.010223	0.009003	0.006409	0.1239	-0.034637	-0.11963	-1.2497	0.007782	-0.47882	-0.037689	-0.082397	-0.006714	-0.082855	-0.70572	0.05661	0.030975	-0.00946	0.008698	0.000305	-0.71457	-0.066681	-0.012665	-0.005188
19.194	0.001373	0.31509	-0.041962	0.013885	-0.005951	-0.049744	-0.095062	0.012054	0.2739	0.027618	-0.007782	0.004425	0.043488	0.017242	-0.055847	0.15808	0.017395	-0.4776	0.20264	-0.058441	-0.032349	-0.085754	-0.4924	-0.053253	0.35233	0.007782	-0.10056	0.00351	1.4383	-0.1831	0.000305	-0.007324
19.195	-0.005188	0.32257	-0.041046	0.021515	-0.002136	-0.028381	-0.10239	0.015411	0.26428	0.029755	-0.011749	0.008392	0.055237	-0.014954	-0.013428	0.79407	0.026093	-0.43442	-0.31693	0.030518	-0.041504	-0.067291	-0.31342	-0.23972	0.53955	0.023041	-0.15472	0.001373	1.5923	-0.20401	0	0.007172
19.196	-0.003967	0.40344	-0.058289	0.029907	-0.011902	-0.029297	-0.11459	0.02182	0.26398	0.021057	-0.001526	0.004425	0.095367	-0.046387	-0.008698	-0.12238	0.019684	-0.47455	-0.62912	0.032196	-0.040894	-0.034943	-0.12924	-0.24765	0.62683	0.013123	-0.00061	-0.001526	0.15595	-0.1268	-0.001068	0.00351
19.197	-0.001678	0.40878	-0.052795	0.019379	-0.00946	0.005951	-0.11841	0.018158	0.25818	0.020599	0.003967	0.002441	0.095367	0.02655	0.021057	0.1651	0.020752	-0.50736	-0.50629	-0.065308	-0.03006	-0.00885	-0.008545	-0.19287	0.67032	0.001221	0.032654	-0.00351	0.32425	-0.021667	-0.002136	-0.004272
19.198	0.008392	0.39078	-0.055695	0.015106	-0.00824	0.023651	-0.11429	0.014801	0.24597	0.043488	0.044708	0.005341	0.058441	-0.019836	0.084229	0.10056	0.005035	-0.53604	-0.16403	-0.094147	-0.027161	-0.009918	0.054474	0.003967	0.53451	0.002747	-0.14694	-0.005341	0.15976	0.006256	0.000153	-0.002594
19.199	0.011139	0.42282	-0.068359	-0.001373	-0.013733	0.01297	-0.12619	0.01236	0.25406	0.059814	0.095215	-0.000305	0.012817	-0.061646	0.17578	0.035858	0.006866	-0.56397	-0.11337	-0.066681	-0.025024	-0.017548	-0.12848	0.064087	0.42175	-0.000305	-0.20721	-0.002899	-0.37018	-0.097504	-0.001678	-0.010071
19.2	0.009613	0.47165	-0.061951	-0.011749	-0.007172	0.003357	-0.12131	0.010986	0.24994	0.059814	0.012207	0.006866	0.00885	0.013733	0.24506	-0.023804	0.009003	-0.53299	0.14114	-0.071259	-0.025787	-0.020294	0.005035	0.19928	0.026855	0.000916	-0.18097	-0.003204	-0.72861	-0.059509	0.007935	0.000916
19.201	0.017242	0.47501	-0.059967	-0.004425	-0.001221	-0.014191	-0.12451	0.012817	0.25543	0.041656	0.009155	0.00412	0.037079	-0.036011	0.37582	-0.066071	0.009308	-0.48263	0.41107	-0.015411	-0.030823	-0.045166	0.08728	0.23148	-0.16724	0.000916	-0.068359	-0.00351	-1.7091	0.007629	-0.004578	-0.009155
19.202	0.020599	0.46753	-0.067444	0.006256	-0.008087	-0.016632	-0.10788	0.011139	0.26398	0.027771	0.049286	0.001068	0.030823	-0.14008	0.30456	-0.063324	0.009155	-0.49255	-0.29617	0.06073	-0.045319	-0.049591	-0.003967	0.067139	-0.6041	0.002899	-0.022278	-0.000153	0.20981	-0.079651	-0.001526	-0.011749
19.203	0.017395	0.47485	-0.058441	0.000763	-0.010376	-0.041046	-0.10971	0.00946	0.26596	-0.062103	0.082703	0.00473	0.053253	-0.072479	0.005646	-0.061646	0.001526	-0.47714	-0.29251	0.08316	-0.021973	-0.018768	0.03006	-0.048218	-0.79498	0.003357	0.11353	-0.007935	0.91309	-0.090027	-0.00061	-0.012665
19.204	0.012817	0.5014	-0.063324	0.023346	-0.00885	-0.057526	-0.12161	0.010223	0.25818	-0.049438	0.10361	-0.000916	0.073395	-0.012512	-0.055084	-0.059814	0.015259	-0.45746	0.13336	0.075073	-0.036011	-0.012054	0.049744	-0.13016	-0.85877	-0.000763	0.16007	-0.00351	1.2486	0.016937	-0.000916	-0.013428
19.205	0.008698	0.46845	-0.046844	0.038605	-0.003815	-0.070953	-0.12558	0.009308	0.25681	-0.014954	-0.06073	-0.002289	0.053406	0.023193	-0.12222	-0.055847	0.019226	-0.47974	-0.35553	0.049286	-0.052948	-0.007324	0.10361	-0.15549	-0.52521	-0.010223	0.052948	-0.003052	0.74692	0.043945	-0.000916	-0.011597
19.206	0.009155	0.45395	-0.046997	0.001221	0.000916	-0.084229	-0.12802	0.005341	0.2594	-0.005188	-0.060577	0.007172	0.079193	0.0177	0.027313	-0.050659	0	-0.52017	-0.81375	0.020905	-0.078735	-0.00061	-0.14587	0.06012	0.2063	-0.010376	-0.24994	-0.005341	-0.71884	0.054169	0.003967	-0.00824
19.207	0.005951	0.44708	-0.044403	0.00351	-0.006561	-0.047607	-0.12817	0.000916	0.24658	0.001831	-0.055237	-0.001373	0.067596	0.019379	0.28	-0.041046	-0.014191	-0.47455	-0.43655	0.046387	0.006561	-0.036469	-0.21332	0.1683	0.47836	-0.011139	-0.076752	-0.002899	-0.21652	-0.017548	0.002289	-0.014038
19.208	0.002441	0.42038	-0.050201	-0.01709	-0.003967	-0.004578	-0.1207	0.005341	0.22751	-0.006104	-0.077972	-0.004425	0.045013	-0.009918	0.25192	0.030212	-0.007172	-0.47867	-0.10101	0.10208	0.028534	-0.034027	-0.087433	0.18234	0.383	-0.013733	0.31342	-0.002441	0.62729	-0.16022	-0.000916	-0.012665
19.209	0.007935	0.39383	-0.041656	-0.012665	0.007172	0.014496	-0.11292	0.009308	0.22507	-0.037537	-0.041199	-0.007324	0.041199	0.035858	0.22125	-0.45227	-0.0177	-0.47699	-0.30884	0.08667	-0.10498	0.011139	0.027313	0.08316	0.24185	-0.013428	0.84259	-0.001831	-0.092926	-0.14557	0.001221	-0.013275
19.21	0.000458	0.3801	-0.01709	-0.000153	0.007172	0.027008	-0.112	0.009308	0.22583	-0.053711	0.079041	-0.004578	0.045929	0.087585	-0.21225	0.043945	-0.0177	-0.47287	0.05127	0.032959	-0.092621	0.031586	0.061035	-0.05249	0.094452	-0.001221	1.143	0.002899	-0.39108	-0.11673	-0.006256	-0.011749
19.211	0.006561	0.3688	-0.005341	-0.010986	0.000458	0.067291	-0.12955	0.011902	0.20493	-0.049438	0.029755	0.002136	0.036163	0.066681	-0.39398	0.07431	-0.003357	-0.41077	0.21072	-0.058289	0.025787	0.016937	0.075684	-0.11002	-0.10849	-0.000916	0.91522	-0.004272	-0.066833	-0.11887	-0.002441	-0.001068
19.212	0.007324	0.36057	-0.019836	0.001526	0.007324	0.059357	-0.13184	0.014038	0.1973	-0.03479	0.013885	0.00061	0.056458	0.025635	-0.14786	0.10666	0.001984	-0.35721	-0.080872	-0.043945	0.018921	0.02655	0.19302	-0.09079	-0.34409	-0.001221	0.29205	-0.000153	0.13199	-0.12543	-0.000305	-0.004272
